<svg xmlns="http://www.w3.org/2000/svg" xmlns:xlink="http://www.w3.org/1999/xlink" viewBox="0 0 3290.62 3716.06"><defs><style>.cls-1{fill:url(#linear-gradient);}.cls-2{fill:#fff;}.cls-3{clip-path:url(#clip-path);}.cls-4{fill:url(#linear-gradient-3);}.cls-5{clip-path:url(#clip-path-2);}</style><linearGradient id="linear-gradient" x1="642.69" y1="483.37" x2="2292.83" y2="483.37" gradientUnits="userSpaceOnUse"><stop offset="0" stop-color="#088fdd"/><stop offset="1" stop-color="#00d1ca"/></linearGradient><clipPath id="clip-path" transform="translate(355.11 424.79)"><path id="SVGID" class="cls-1" d="M1107.56,293.39,642.69,551.24l399.53,284.15V724.72L805.12,564.39l290-162-3.94,409.21L1354,966.73l265.81-150.07,4.87-509.93-93.42-55.12-2,204.68,1.4.9-1.44.78-2.93,303.53L1355,858.17l-169.38-99.94,2.89-303.5-1.45-.85,1.45-.9,2-204.68Zm626.26,217.05v1.68l1.44-.86Zm-342.11.7,1.52.9v-1.72Zm137.51-54.85,0,1.68,1.44-.78Zm-342.12-2.41,1.45.85V453ZM1828,708.8v.67l-21.49,10.68Zm-21.84,11.55-72.29,36,0-39.44,0-204.76,1.44-.86-1.44-.82.12-303.49-170.32-98.39-170.35,98.27,0,303.49-1.52.82,1.52.9-.12,204.72-93.93-54.3.15-509.89L1563.66,0,1828,152.72,1827.79,611l.16-.11,25.2-17.52,277.24-154.94-237.1-160.29V167.51l399.54,284.1L1853.15,695.5l-.47.23L1828,708.8m25.2-115.39L1828,610.93V607.5Z"/></clipPath><linearGradient id="linear-gradient-3" x1="584.52" y1="438.49" x2="2311.08" y2="438.49" gradientTransform="translate(4.22 -13.7) rotate(0.54)" xlink:href="#linear-gradient"/><clipPath id="clip-path-2" transform="translate(355.11 424.79)"><path id="SVGID-2" data-name="SVGID" class="cls-2" d="M33.75,1529.77Q0,1497,0,1432.73V1242.4H55.32v189.86q0,42.66,18.52,63.52t56.48,20.86q37,0,56.26-21.09t19.22-63.29V1242.4h53.44v190.33q0,62.82-33.28,96.33t-92.82,33.52Q67.5,1562.58,33.75,1529.77Zm323.94-9.85q-37.51-40.79-37.51-120.94,0-79.7,37.27-120.72t109-41q71.27,0,109,40.79t37.73,120.48q0,79.7-37.5,120.94t-109.23,41.26Q395.18,1560.71,357.69,1519.92Zm177-34q21.79-27.43,21.8-87.43t-21.8-87.2q-21.79-27.18-68.21-27.19t-68.21,27.43Q376.43,1339,376.44,1399t21.79,87.19q21.81,27.19,68.21,27.19T534.65,1485.94Zm404.8,69.14H892.1L725.68,1327.72v227.36h-52V1242.4h51.56l162.67,225v-225h51.57Zm278.92-312.68v45H1067.42V1376h132.2v44.53h-132.2v89.07h150.95v45.47h-205.8V1242.4Zm256.42,230.17-30,82.51h-55.31l121.41-312.68H1569l117.67,312.68H1630.9l-30.47-82.51Zm62.82-174.85-47.35,130.79H1585Zm371.75,256.19a223.55,223.55,0,0,1-51.57,6.33q-74.54,0-112.51-40.55t-38-121.18q0-161.73,150-161.73a224.14,224.14,0,0,1,51.57,6.32,338.12,338.12,0,0,1,51.57,16.65l-17.35,43.59a207.1,207.1,0,0,0-42.66-15.23,185.31,185.31,0,0,0-43.13-5.39q-46.41,0-69.85,27.89t-23.44,87.9q0,60.46,23.44,87.9t70.32,27.42a185.31,185.31,0,0,0,43.13-5.39,206,206,0,0,0,42.66-15.24l17.34,43.6A306.81,306.81,0,0,1,1909.36,1553.91Zm79.69-266.51v-45h253.61v45h-99.38v267.68h-54.85V1287.4Zm355.33-45v312.68h-54.84V1242.4Zm219.86,312.68h-57.19L2388.92,1242.4h61.41l86.72,248,88.14-247.52,60.47-.47Zm371.27-312.68v45H2784.57V1376h132.19v44.53H2784.57v89.07h150.94v45.47H2729.72V1242.4Z"/></clipPath></defs><g id="Layer_2" data-name="Layer 2"><g id="Layer_1-2" data-name="Layer 1"><path id="SVGID-3" data-name="SVGID" class="cls-1" d="M1107.56,293.39,642.69,551.24l399.53,284.15V724.72L805.12,564.39l290-162-3.94,409.21L1354,966.73l265.81-150.07,4.87-509.93-93.42-55.12-2,204.68,1.4.9-1.44.78-2.93,303.53L1355,858.17l-169.38-99.94,2.89-303.5-1.45-.85,1.45-.9,2-204.68Zm626.26,217.05v1.68l1.44-.86Zm-342.11.7,1.52.9v-1.72Zm137.51-54.85,0,1.68,1.44-.78Zm-342.12-2.41,1.45.85V453ZM1828,708.8v.67l-21.49,10.68Zm-21.84,11.55-72.29,36,0-39.44,0-204.76,1.44-.86-1.44-.82.12-303.49-170.32-98.39-170.35,98.27,0,303.49-1.52.82,1.52.9-.12,204.72-93.93-54.3.15-509.89L1563.66,0,1828,152.72,1827.79,611l.16-.11,25.2-17.52,277.24-154.94-237.1-160.29V167.51l399.54,284.1L1853.15,695.5l-.47.23L1828,708.8m25.2-115.39L1828,610.93V607.5Z" transform="translate(355.11 424.79)"/><g class="cls-3"><rect class="cls-4" x="592.59" y="-416.72" width="1710.42" height="1710.42" transform="translate(351.02 438.54) rotate(-0.54)"/></g><path id="SVGID-4" data-name="SVGID" class="cls-2" d="M33.75,1529.77Q0,1497,0,1432.73V1242.4H55.32v189.86q0,42.66,18.52,63.52t56.48,20.86q37,0,56.26-21.09t19.22-63.29V1242.4h53.44v190.33q0,62.82-33.28,96.33t-92.82,33.52Q67.5,1562.58,33.75,1529.77Zm323.94-9.85q-37.51-40.79-37.51-120.94,0-79.7,37.27-120.72t109-41q71.27,0,109,40.79t37.73,120.48q0,79.7-37.5,120.94t-109.23,41.26Q395.18,1560.71,357.69,1519.92Zm177-34q21.79-27.43,21.8-87.43t-21.8-87.2q-21.79-27.18-68.21-27.19t-68.21,27.43Q376.43,1339,376.44,1399t21.79,87.19q21.81,27.19,68.21,27.19T534.65,1485.94Zm404.8,69.14H892.1L725.68,1327.72v227.36h-52V1242.4h51.56l162.67,225v-225h51.57Zm278.92-312.68v45H1067.42V1376h132.2v44.53h-132.2v89.07h150.95v45.47h-205.8V1242.4Zm256.42,230.17-30,82.51h-55.31l121.41-312.68H1569l117.67,312.68H1630.9l-30.47-82.51Zm62.82-174.85-47.35,130.79H1585Zm371.75,256.19a223.55,223.55,0,0,1-51.57,6.33q-74.54,0-112.51-40.55t-38-121.18q0-161.73,150-161.73a224.14,224.14,0,0,1,51.57,6.32,338.12,338.12,0,0,1,51.57,16.65l-17.35,43.59a207.1,207.1,0,0,0-42.66-15.23,185.31,185.31,0,0,0-43.13-5.39q-46.41,0-69.85,27.89t-23.44,87.9q0,60.46,23.44,87.9t70.32,27.42a185.31,185.31,0,0,0,43.13-5.39,206,206,0,0,0,42.66-15.24l17.34,43.6A306.81,306.81,0,0,1,1909.36,1553.91Zm79.69-266.51v-45h253.61v45h-99.38v267.68h-54.85V1287.4Zm355.33-45v312.68h-54.84V1242.4Zm219.86,312.68h-57.19L2388.92,1242.4h61.41l86.72,248,88.14-247.52,60.47-.47Zm371.27-312.68v45H2784.57V1376h132.19v44.53H2784.57v89.07h150.94v45.47H2729.72V1242.4Z" transform="translate(355.11 424.79)"/><g class="cls-5"><rect class="cls-2" x="-340.66" y="213.48" width="3063.34" height="3063.34" transform="translate(338.62 436.16) rotate(-0.54)"/></g></g></g></svg>