<svg id="Layer_1" data-name="Layer 1" xmlns="http://www.w3.org/2000/svg" xmlns:xlink="http://www.w3.org/1999/xlink" viewBox="0 0 9175.68 4874.35"><defs><style>.cls-1{fill:url(#linear-gradient);}.cls-2{fill:#252b30;}.cls-3{clip-path:url(#clip-path);}.cls-4{fill:url(#linear-gradient-3);}.cls-5{clip-path:url(#clip-path-2);}</style><linearGradient id="linear-gradient" x1="2025.44" y1="1528.24" x2="7152.83" y2="1528.24" gradientUnits="userSpaceOnUse"><stop offset="0" stop-color="#088fdd"/><stop offset="1" stop-color="#00d1ca"/></linearGradient><clipPath id="clip-path"><path id="SVGID" class="cls-1" d="M3469.93,937.94,2025.44,1739.15,3266.9,2622.06V2278.18L2530.17,1780l901-503.51L3418.9,2548l816.6,482.18,825.94-466.3L5076.59,979.4l-290.3-171.28-6.18,636,4.36,2.79-4.48,2.43-9.1,943.15-532,300.36L3712.59,2382.3l9-943-4.48-2.67,4.48-2.79,6.31-636Zm1945.93,674.43v5.21l4.49-2.67Zm-1063,2.18,4.73,2.79V1612Zm427.28-170.43-.12,5.22,4.48-2.43Zm-1063-7.51,4.48,2.67v-5.46Zm1991.27,792.12v2.06L5641.56,2264Zm-67.88,35.88-224.61,111.75-.12-122.54.12-636.24,4.49-2.67-4.49-2.54.37-943L4887,363.64,4357.68,669l-.12,943-4.73,2.55,4.73,2.79-.36,636.12-291.88-168.73.49-1584.36L4887.14,26.31l821.21,474.54L5707.86,1925l.49-.36,78.3-54.43,861.45-481.45L5911.38,890.67V546.79l1241.45,882.79L5786.65,2187.4l-1.45.72-76.85,40.61m78.3-358.55-78.3,54.43v-10.67Z"/></clipPath><linearGradient id="linear-gradient-3" x1="1844.71" y1="1388.8" x2="7209.55" y2="1388.8" gradientTransform="translate(13.37 -42.85) rotate(0.54)" xlink:href="#linear-gradient"/><clipPath id="clip-path-2"><path id="SVGID-2" data-name="SVGID" class="cls-2" d="M133.34,4779.67q-104.88-102-104.88-301.53V3886.75H200.35v589.93q0,132.57,57.54,197.38t175.52,64.82q115.05,0,174.8-65.55t59.72-196.65V3886.75H834v591.39q0,195.22-103.42,299.34T442.15,4881.63Q238.2,4881.63,133.34,4779.67Zm1006.54-30.6q-116.57-126.72-116.54-375.8,0-247.62,115.81-375.09t338.66-127.45q221.4,0,338.67,126.72t117.26,374.36q0,247.65-116.53,375.81t-339.4,128.19Q1256.38,4875.81,1139.88,4749.07Zm549.88-105.59q67.73-85.23,67.73-271.67t-67.73-270.93q-67.74-84.48-212-84.49t-211.94,85.21q-67.72,85.21-67.73,271.67t67.73,270.93q67.74,84.49,211.94,84.49T1689.76,4643.48Zm1257.79,214.84H2800.43l-517.1-706.46v706.46H2121.64V3886.75h160.23l505.46,699.19V3886.75h160.22Zm866.69-971.57v139.83h-469v275.31H3756v138.38H3345.21V4717h469v141.29H3174.77V3886.75ZM4611,4602l-93.23,256.37H4345.9l377.27-971.57h180.62l365.62,971.57H5096.06L5001.38,4602Zm195.18-543.32L4659.07,4465h294.25ZM5961.3,4854.68q-83,19.66-160.24,19.67-231.6,0-349.59-126t-118-376.54q0-502.55,466.12-502.54,77.19,0,160.22,19.66a1048.91,1048.91,0,0,1,160.24,51.72l-53.9,135.46a642.93,642.93,0,0,0-132.55-47.34q-69.91-16.72-134-16.75-144.21,0-217,86.67t-72.84,273.12q0,187.9,72.84,273.12t218.48,85.21q64.09,0,134-16.76a640.74,640.74,0,0,0,132.55-47.33l53.9,135.47A952,952,0,0,1,5961.3,4854.68Zm247.61-828.1V3886.75h788v139.83H6688.14v831.74H6517.72V4026.58ZM7313,3886.75v971.57H7142.61V3886.75Zm683.16,971.57H7818.47L7451.4,3886.75h190.82l269.48,770.56,273.85-769.1,187.9-1.46Zm1153.62-971.57v139.83h-469v275.31h410.77v138.38H8680.78V4717h469v141.29H8510.36V3886.75Z"/></clipPath></defs><path id="SVGID-3" data-name="SVGID" class="cls-1" d="M3469.93,937.94,2025.44,1739.15,3266.9,2622.06V2278.18L2530.17,1780l901-503.51L3418.9,2548l816.6,482.18,825.94-466.3L5076.59,979.4l-290.3-171.28-6.18,636,4.36,2.79-4.48,2.43-9.1,943.15-532,300.36L3712.59,2382.3l9-943-4.48-2.67,4.48-2.79,6.31-636Zm1945.93,674.43v5.21l4.49-2.67Zm-1063,2.18,4.73,2.79V1612Zm427.28-170.43-.12,5.22,4.48-2.43Zm-1063-7.51,4.48,2.67v-5.46Zm1991.27,792.12v2.06L5641.56,2264Zm-67.88,35.88-224.61,111.75-.12-122.54.12-636.24,4.49-2.67-4.49-2.54.37-943L4887,363.64,4357.68,669l-.12,943-4.73,2.55,4.73,2.79-.36,636.12-291.88-168.73.49-1584.36L4887.14,26.31l821.21,474.54L5707.86,1925l.49-.36,78.3-54.43,861.45-481.45L5911.38,890.67V546.79l1241.45,882.79L5786.65,2187.4l-1.45.72-76.85,40.61m78.3-358.55-78.3,54.43v-10.67Z"/><g class="cls-3"><rect class="cls-4" x="1869.78" y="-1268.56" width="5314.7" height="5314.71" transform="translate(-12.96 42.97) rotate(-0.54)"/></g><path id="SVGID-4" data-name="SVGID" class="cls-2" d="M133.34,4779.67q-104.88-102-104.88-301.53V3886.75H200.35v589.93q0,132.57,57.54,197.38t175.52,64.82q115.05,0,174.8-65.55t59.72-196.65V3886.75H834v591.39q0,195.22-103.42,299.34T442.15,4881.63Q238.2,4881.63,133.34,4779.67Zm1006.54-30.6q-116.57-126.72-116.54-375.8,0-247.62,115.81-375.09t338.66-127.45q221.4,0,338.67,126.72t117.26,374.36q0,247.65-116.53,375.81t-339.4,128.19Q1256.38,4875.81,1139.88,4749.07Zm549.88-105.59q67.73-85.23,67.73-271.67t-67.73-270.93q-67.74-84.48-212-84.49t-211.94,85.21q-67.72,85.21-67.73,271.67t67.73,270.93q67.74,84.49,211.94,84.49T1689.76,4643.48Zm1257.79,214.84H2800.43l-517.1-706.46v706.46H2121.64V3886.75h160.23l505.46,699.19V3886.75h160.22Zm866.69-971.57v139.83h-469v275.31H3756v138.38H3345.21V4717h469v141.29H3174.77V3886.75ZM4611,4602l-93.23,256.37H4345.9l377.27-971.57h180.62l365.62,971.57H5096.06L5001.38,4602Zm195.18-543.32L4659.07,4465h294.25ZM5961.3,4854.68q-83,19.66-160.24,19.67-231.6,0-349.59-126t-118-376.54q0-502.55,466.12-502.54,77.19,0,160.22,19.66a1048.91,1048.91,0,0,1,160.24,51.72l-53.9,135.46a642.93,642.93,0,0,0-132.55-47.34q-69.91-16.72-134-16.75-144.21,0-217,86.67t-72.84,273.12q0,187.9,72.84,273.12t218.48,85.21q64.09,0,134-16.76a640.74,640.74,0,0,0,132.55-47.33l53.9,135.47A952,952,0,0,1,5961.3,4854.68Zm247.61-828.1V3886.75h788v139.83H6688.14v831.74H6517.72V4026.58ZM7313,3886.75v971.57H7142.61V3886.75Zm683.16,971.57H7818.47L7451.4,3886.75h190.82l269.48,770.56,273.85-769.1,187.9-1.46Zm1153.62-971.57v139.83h-469v275.31h410.77v138.38H8680.78V4717h469v141.29H8510.36V3886.75Z"/><g class="cls-5"><rect class="cls-2" x="-1030.05" y="689.64" width="9518.54" height="9518.54" transform="translate(-51.48 35.59) rotate(-0.54)"/></g></svg>